# xmcd CD database file
#
# Track frame offsets:
#	150
#	13566
#	26159
#	38523
#	50327
#	67271
#	79549
#	92729
#	108602
#	120365
#	135621
#	147533
#	158782
#	174394
#	186725
#	197957
#	210140
#	220634
#	230271
#	241888
#	254571
#	268553
#	285539
#	296061
#
# Disc length: 4136 seconds
#
# Revision: 2
# Processed by: cddbd v1.4PL0 Copyright (c) Steve Scherf et al.
# Submitted via: CDex 1.50
#
DISCID=5f102618
DTITLE=Dave Brubeck  - Heart and soul, with Ron Crotty, Cal Tjader
DYEAR=1950
DGENRE=Jazz
TTITLE0=Blue Moon
TTITLE1=Tea For Two
TTITLE2=Laura
TTITLE3=Indiana
TTITLE4=Body And Soul
TTITLE5=Let's Fall In Love
TTITLE6=You Stepped Out Of A Dream
TTITLE7=Lullaby In Rhythm
TTITLE8=Singin' In The Rain
TTITLE9=I'll Remember April
TTITLE10=That Old Black Magic
TTITLE11=Undecided
TTITLE12=September Song
TTITLE13=Sweet Georgia Brown
TTITLE14=Spring Is Here
TTITLE15='S Wonderful
TTITLE16=Perfidia
TTITLE17=Avalon
TTITLE18=I Didn't Know What Time It Was
TTITLE19=Always
TTITLE20=How High The Moon
TTITLE21=Squeeze Me
TTITLE22=Heart and Soul
TTITLE23=Too Marvelous For Words
EXTD=YEAR: 1950
EXTT0=
EXTT1=
EXTT2=
EXTT3=
EXTT4=
EXTT5=
EXTT6=
EXTT7=
EXTT8=
EXTT9=
EXTT10=
EXTT11=
EXTT12=
EXTT13=
EXTT14=
EXTT15=
EXTT16=
EXTT17=
EXTT18=
EXTT19=
EXTT20=
EXTT21=
EXTT22=
EXTT23=
PLAYORDER=
